# xmcd
#
# Track frame offsets:
#	150
#	9022
#	22023
#	37181
#	51325
#	66004
#	80411
#	92168
#	109780
#	121183
#	134695
#	147135
#	163215
#	176094
#	189033
#	199141
#	217253
#	231209
#	244241
#	258206
#	278762
#	292128
#	306648
#
# Disc length: 4219 seconds
#
# Revision: 1
# Processed by: cddbd v1.5.2PL0 Copyright (c) Steve Scherf et al.
# Submitted via: audiograbber 1.83.01
#
DISCID=5d107917
DTITLE=Ray Charles - All Hits!
DYEAR=2017
DGENRE=Blues
TTITLE0=Hit the Road Jack
TTITLE1=Unchain My Heart
TTITLE2=Drown in my tears
TTITLE3=One Mint Julep
TTITLE4=Born to lose
TTITLE5=Hide 'nor hair
TTITLE6=Lonely avenue
TTITLE7=Ruby
TTITLE8=Confession Blues
TTITLE9=You are my sunshine
TTITLE10=That's enough
TTITLE11=Your cheatin' heart
TTITLE12=Greenbacks
TTITLE13=Making believe
TTITLE14=Sticks and stones
TTITLE15=Careless love
TTITLE16=Tell the truth
TTITLE17=Them that got
TTITLE18=Come back baby
TTITLE19=I've got news for you
TTITLE20=Don't you know
TTITLE21=But on the other hand baby
TTITLE22=I'm movin' on
EXTD=
EXTT0=
EXTT1=
EXTT2=
EXTT3=
EXTT4=
EXTT5=
EXTT6=
EXTT7=
EXTT8=
EXTT9=
EXTT10=
EXTT11=
EXTT12=
EXTT13=
EXTT14=
EXTT15=
EXTT16=
EXTT17=
EXTT18=
EXTT19=
EXTT20=
EXTT21=
EXTT22=
PLAYORDER=
